<svg width="18" height="18" viewBox="0 0 18 18" fill="none" xmlns="http://www.w3.org/2000/svg">
<path fill-rule="evenodd" clip-rule="evenodd" d="M3 0H15C16.6569 0 18 1.34315 18 3V15C18 16.6569 16.6569 18 15 18H3C1.34315 18 0 16.6569 0 15V3C0 1.34315 1.34315 0 3 0ZM8.73 12.61L13.3 6.61V6.58C13.5179 6.29419 13.5668 5.91382 13.4283 5.58218C13.2897 5.25054 12.9848 5.01801 12.6283 4.97218C12.2718 4.92635 11.9179 5.07419 11.7 5.36L7.92 10.36L6.29 8.28C6.07028 7.99776 5.71668 7.85418 5.36239 7.90334C5.00811 7.9525 4.70696 8.18694 4.57239 8.51834C4.43783 8.84974 4.49028 9.22776 4.71 9.51L7.15 12.62C7.34082 12.8615 7.63222 13.0017 7.94 13C8.2495 12.9993 8.54121 12.8552 8.73 12.61Z" fill="#3258FB"/>
</svg>
